<svg viewBox="0 0 560 308" style="max-width: 100%; height: 308px;box-shadow: 0 4px 8px 0 rgba(0,0,0,0.2);transition: 0.3s;border: 1px solid #dedede;border-radius: 5px;background-image: radial-gradient( circle farthest-corner at 10% 20%,  rgba(216,241,230,0.46) 0.1%, rgba(233,226,226,0.28) 90.1% ); position: absolute; top: 50%;font-size:48px; left: 50%; transform: translate(-50%, -50%) scale(1); z-index: 0; cursor: pointer;">
  <g id="SvgjsG1452" featurekey="nameFeature-0" fill="#000" transform="translate(157.625,104) scale(0.20161290322581)">
    <path d="m357.351562 24.050781h74.234376v148.511719h-74.234376zm0 0" fill="#0eaf89"/>
    <path d="m431.585938 180.5625h-74.234376c-4.414062 0-8-3.582031-8-8v-148.511719c0-4.417969 3.585938-8 8-8h74.234376c4.414062 0 8 3.582031 8 8v148.511719c0 4.421875-3.585938 8-8 8zm-66.234376-16h58.234376v-132.511719h-58.234376zm0 0" fill="#145588"/>
    <path d="m392.421875 125.164062-41.261719-35.332031-90.101562-77.152343c-1.289063-1.132813-2.773438-1.773438-4.257813-2.515626-.644531-.320312-1.191406-.84375-1.867187-1.097656-1.753906-.65625-3.578125-.859375-5.449219-.992187-1-.085938-1.96875-.085938-2.96875 0-1.867187.136719-3.6875.335937-5.445313.992187-.660156.257813-1.210937.777344-1.851562 1.097656-1.464844.707032-2.984375 1.382813-4.277344 2.515626l-226.941406 194.359374 26.113281 66.035157 48.839844-41.824219v203.167969c0 11.949219 9.21875 21.597656 20.632813 21.597656h288.839843c11.410157 0 20.632813-9.648437 20.632813-21.597656v-203.167969l48.839844 41.824219 26.101562-66.035157zm0 0" fill="#ff5576"/>
    <path d="m392.417969 464.011719h-288.835938c-15.789062 0-28.632812-13.277344-28.632812-29.597657v-185.78125l-35.636719 30.519532c-1.964844 1.683594-4.628906 2.300781-7.128906 1.6875-2.507813-.625-4.5625-2.421875-5.511719-4.824219l-26.109375-66.035156c-1.257812-3.179688-.359375-6.796875 2.234375-9.019531l226.949219-194.359376c1.914062-1.683593 3.953125-2.664062 5.585937-3.445312l.148438-.074219c.691406-.46875 1.558593-1.035156 2.722656-1.484375 2.773437-1.035156 5.359375-1.332031 7.742187-1.503906 1.351563-.1210938 2.761719-.1210938 4.230469.007812 2.28125.164063 4.867188.464844 7.570313 1.472657 1.273437.480469 2.195312 1.101562 2.742187 1.472656l.539063.277344c1.535156.75 3.4375 1.6875 5.324218 3.351562l131.277344 112.40625 95.582032 81.875c2.59375 2.222657 3.492187 5.84375 2.242187 9.015625l-26.109375 66.039063c-.949219 2.402343-3.007812 4.199219-5.515625 4.824219-2.507813.613281-5.164063-.007813-7.128906-1.6875l-35.632813-30.519532v185.78125c-.011718 16.324219-12.859375 29.601563-28.648437 29.601563zm-309.464844-240.761719c1.132813 0 2.273437.242188 3.339844.734375 2.835937 1.304687 4.65625 4.140625 4.65625 7.265625v203.167969c0 7.496093 5.667969 13.597656 12.632812 13.597656h288.835938c6.960937 0 12.628906-6.101563 12.628906-13.597656v-203.167969c0-3.125 1.816406-5.960938 4.65625-7.265625 2.832031-1.308594 6.175781-.84375 8.550781 1.191406l40.320313 34.527344 19.886719-50.300781-222.609376-190.644532c-.371093-.324218-1.140624-.703124-1.886718-1.070312l-.757813-.371094c-.484375-.246094-1-.554687-1.5-.890625-.710937-.1875-1.644531-.289062-2.792969-.371093-.652343-.054688-1.167968-.050782-1.710937-.007813-1.222656.085937-2.167969.1875-2.886719.378906-.570312.375-1.050781.667969-1.554687.914063l-.503907.242187c-.832031.402344-1.691406.8125-2.03125 1.113281l-222.691406 190.707032 19.890625 50.300781 40.320313-34.527344c1.480468-1.269531 3.335937-1.925781 5.207031-1.925781zm0 0" fill="#145588"/>
    <path d="m104.957031 434.070312c-.089843-.046874-.625-.511718-.625-1.578124v-244.28125l-59.976562 51.363281-10.453125-26.441407 213.292968-182.667968s.789063-.378906.8125-.390625l.800782.394531 129.347656 110.761719 83.941406 71.902343-10.457031 26.445313-59.96875-51.367187v244.28125c0 1.011718-.5 1.488281-.648437 1.578124zm0 0" fill="#fff"/>
    <path d="m247.234375 409.515625c-81.222656 0-78.902344-29.589844-78.902344-70.664063 0-40.1875 41.5625-106.65625 78.902344-106.65625 43.246094 0 81.21875 66.46875 81.21875 106.65625 0 41.070313 0 70.664063-81.21875 70.664063zm0 0" fill="#0eaf89"/>
    <path d="m247.234375 232.414062c8.015625 0 16.03125 2.429688 23.414063 6.40625 14.554687-17.890624 32.914062-51.671874 29.535156-62.054687-1.476563-4.195313-4.21875-5.078125-5.695313-5.519531-.632812-.21875-10.972656-2.871094-20.25 14.796875-2.109375 2.871093-6.542969 8.390625-12.871093 7.289062-5.273438-.441406-10.125-5.523437-14.554688-14.796875-4.433594 9.273438-9.285156 14.351563-14.554688 14.796875-5.695312.882813-10.128906-5.082031-11.8125-7.949219-9.703124-17.664062-19.195312-14.578124-19.832031-14.578124-4.433593 1.546874-5.277343 3.976562-5.695312 5.523437-2.53125 11.480469 14.765625 45.929687 29.324219 63.59375 7.589843-4.855469 15.394531-7.507813 22.992187-7.507813zm0 0" fill="#ff5576"/>
    <path d="m278.691406 331.984375c-1.507812-2.820313-3.574218-5.238281-6.507812-7.605469-2.621094-2.097656-5.667969-3.882812-9.054688-5.308594-3.375-1.414062-6.859375-2.882812-10.671875-4.175781-1.410156-.539062-2.730469-1.007812-4-1.453125-1.355469-.476562-2.640625-.925781-3.875-1.417968-2.628906-1.054688-4.460937-1.953126-5.945312-2.925782-1.632813-1.066406-2.824219-2.214844-3.539063-3.417968-.789062-1.324219-1.1875-2.878907-1.1875-4.617188 0-3.253906 1.328125-5.726562 4.054688-7.566406 2.777344-1.875 6.976562-2.820313 12.480468-2.820313 4.796876 0 9.019532.414063 12.5625 1.246094 3.585938.835937 6.34375 1.609375 8.4375 2.355469l1.332032.480468 3.417968-12.980468-1.1875-.367188c-1.734374-.542968-4.652343-1.375-8.691406-2.273437-3.578125-.757813-7.042968-1.214844-10.804687-1.410157v-15.105468h-14.433594v15.878906c-7.449219 1.238281-13.109375 3.820312-17.273437 7.867188-4.359376 4.234374-6.570313 9.773437-6.570313 16.460937 0 3.785156.75 7.019531 2.230469 9.605469 1.519531 2.65625 3.363281 4.824218 5.644531 6.621094 2.078125 1.644531 4.632813 3.160156 7.886719 4.675781l2.003906.777343c2.210938.859376 4.367188 1.699219 6.648438 2.449219 2.816406.878907 5.816406 1.847657 8.640624 3 2.871094 1.171875 5.367188 2.546875 7.179688 3.585938 1.835938 1.144531 3.453125 2.605469 4.757812 4.273437 1.113282 1.632813 1.660157 3.488282 1.660157 5.671875 0 2.863281-1.292969 5.246094-3.914063 7.261719-2.71875 1.9375-7.792968 2.960938-14.683594 2.960938-5.941406 0-10.800781-.480469-14.050781-1.386719-4.332031-1.234375-7.554687-2.332031-10.125-3.464844l-1.28125-.566406-4.457031 12.515625 1.074219.5c2.210937 1.035156 5.445312 2.1875 9.59375 3.425781 3.832031 1.191406 8.878906 1.882813 15.382812 2.105469v16.84375h14.433594v-17.136719c8.417969-1.238281 14.515625-3.710937 18.644531-7.5625 4.421875-4.300781 6.574219-9.632813 6.574219-16.300781.003906-4.367188-.785156-7.878906-2.386719-10.699219zm0 0" fill="#1fd4af"/>
  </g>
  <g id="SvgjsG1454" featurekey="nameFeature-0">
    <text x="277.625" y="50%" dominant-baseline="middle" text-anchor="left" class="mytextnew17207325978733868" style="font-size:48px;fill:#000;">
									Gateup								</text>
    <text x="340" y="184" dominant-baseline="middle" text-anchor="left" class="mytextnew217207325978733868" style="font-size:48px;fill:#000;">
																	</text>
  </g>
</svg>
